HIERARCHY
ROOT Hips
{
	OFFSET 0.00000 0.00000 0.00000
	CHANNELS 6 Xposition Yposition Zposition Zrotation Yrotation Xrotation 
	JOINT LHipJoint
	{
		OFFSET 0 0 0
		CHANNELS 3 Zrotation Yrotation Xrotation
		JOINT LeftHip
		{
			OFFSET 1.37959 -1.78713 0.86582
			CHANNELS 3 Zrotation Yrotation Xrotation
			JOINT LeftKnee
			{
				OFFSET 2.54611 -6.99539 0.00000
				CHANNELS 3 Zrotation Yrotation Xrotation
				JOINT LeftAnkle
				{
					OFFSET 2.59951 -7.14211 0.00000
					CHANNELS 3 Zrotation Yrotation Xrotation
					JOINT LeftToe
					{
						OFFSET 0.18493 -0.50810 1.96120
						CHANNELS 3 Zrotation Yrotation Xrotation
						End Site
						{
							OFFSET 0.00000 -0.00000 1.02054
						}
					}
				}
			}
		}
	}
	JOINT RHipJoint
	{
		OFFSET 0 0 0
		CHANNELS 3 Zrotation Yrotation Xrotation
		JOINT RightHip
		{
			OFFSET -1.33564 -1.78713 0.86582
			CHANNELS 3 Zrotation Yrotation Xrotation
			JOINT RightKnee
			{
				OFFSET -2.52705 -6.94302 0.00000
				CHANNELS 3 Zrotation Yrotation Xrotation
				JOINT RightAnkle
				{
					OFFSET -2.55964 -7.03257 0.00000
					CHANNELS 3 Zrotation Yrotation Xrotation
					JOINT RightToe
					{
						OFFSET -0.25804 -0.70896 2.12109
						CHANNELS 3 Zrotation Yrotation Xrotation
						End Site
						{
							OFFSET -0.00000 -0.00000 1.11821
						}
					}
				}
			}
		}
	}
	JOINT lowerback
	{
		OFFSET 0 0 0
		CHANNELS 3 Zrotation Yrotation Xrotation
		JOINT Chest
		{
			OFFSET -0.02031 2.24248 -0.18900
			CHANNELS 3 Zrotation Yrotation Xrotation
			JOINT Chest2
			{
				OFFSET 0.08342 2.24689 -0.03799
				CHANNELS 3 Zrotation Yrotation Xrotation
				JOINT lowerneck
				{
					OFFSET 0 0 0
					CHANNELS 3 Zrotation Yrotation Xrotation
					JOINT Neck
					{
						OFFSET -0.11607 1.55844 0.24628
						CHANNELS 3 Zrotation Yrotation Xrotation
						JOINT Head
						{
							OFFSET 0.06877 1.60174 -0.17013
							CHANNELS 3 Zrotation Yrotation Xrotation
							End Site
							{
								OFFSET 0.03358 1.61266 -0.08543
							}
						}
					}
				}
				JOINT LeftCollar
				{
					OFFSET 0 0 0
					CHANNELS 3 Zrotation Yrotation Xrotation
					JOINT LeftShoulder
					{
						OFFSET 3.47537 0.55866 -0.72348
CHANNELS 3 Zrotation Xrotation Yrotation
						JOINT LeftElbow
						{
OFFSET 0 -5.381540 0.000000
CHANNELS 3 Zrotation Xrotation Yrotation
							JOINT LeftWrist
							{
OFFSET 0 -3.333120 0.000000
CHANNELS 3 Zrotation Xrotation Yrotation
								JOINT lhand
								{
									OFFSET 0 0 0
CHANNELS 3 Zrotation Xrotation Yrotation
									JOINT LFingers
									{
OFFSET 0 -0.710790 0.000000
CHANNELS 3 Zrotation Xrotation Yrotation
										End Site
										{
OFFSET 0 -0.573060 0.000000
										}
									}
								}
								JOINT LThumb
								{
OFFSET 0 0.000000 0.000000
CHANNELS 3 Zrotation Xrotation Yrotation
									End Site
									{
OFFSET 0 -0.581810 0.581810
									}
								}
							}
						}
					}
				}
				JOINT RightCollar
				{
					OFFSET 0 0 0
					CHANNELS 3 Zrotation Yrotation Xrotation
					JOINT RightShoulder
					{
						OFFSET -3.27844 0.90739 -0.35708
CHANNELS 3 Zrotation Xrotation Yrotation
						JOINT RightElbow
						{
OFFSET 0 -5.169540 0.000000
CHANNELS 3 Zrotation Xrotation Yrotation
							JOINT RightWrist
							{
OFFSET 0 -3.382870 0.000000
CHANNELS 3 Zrotation Xrotation Yrotation
								JOINT rhand
								{
									OFFSET 0 0 0
CHANNELS 3 Zrotation Xrotation Yrotation
									JOINT RFingers
									{
OFFSET 0 -0.817970 0.000000
CHANNELS 3 Zrotation Xrotation Yrotation
										End Site
										{
OFFSET 0 -0.659470 0.000000
										}
									}
								}
								JOINT RThumb
								{
OFFSET 0 0.000000 0.000000
CHANNELS 3 Zrotation Xrotation Yrotation
									End Site
									{
OFFSET 0 -0.669530 0.669530
									}
								}
							}
						}
					}
				}
			}
		}
	}
}
MOTION
Frames: 6
Frame Time: 0.008333333333333333
16.810697 9.928123 -6.641608 82.641738 -85.568351 -104.892601 0.000000 0.000000 0.000000 -2.388390 -11.404492 -65.780389 13.785809 19.047842 71.549390 1.058034 9.026104 18.499423 3.936555 12.075394 35.999402 0.000000 0.000000 0.000000 0.583621 6.844985 -67.642794 -13.995001 -19.112515 72.189070 -1.063705 -6.617058 18.409289 -0.907796 -6.071609 16.992379 1.611087 4.189606 42.986711 1.917999 3.365066 16.082544 0.020048 0.578314 -2.309523 -0.161285 17.750454 -12.266027 -7.088462 24.913548 10.118094 0.111609 11.678707 5.921282 0.000000 0.000000 0.000000 -11.462154 -56.669471 -75.990802 31.573373 -42.204384 12.453309 -21.043945 14.206332 -34.063157 0.000000 0.000000 0.000000 -7.125000 0.000000 0.000000 -56.171315 55.266096 18.303251 0.000000 0.000000 0.000000 -24.585109 -47.507210 45.432423 -47.710268 -52.029169 -24.357164 -2.257225 12.596941 -20.543066 0.000000 0.000000 0.000000 7.125000 0.000000 0.000000 16.685393 10.076704 14.137927
16.819287 9.917907 -6.641451 83.235945 -85.454663 -105.469636 0.000000 0.000000 0.000000 -2.480858 -11.367585 -65.838467 13.783058 19.046917 71.540810 1.066732 9.022518 18.571691 3.743448 11.810831 35.065972 0.000000 0.000000 0.000000 0.427830 7.017683 -67.717908 -13.976674 -19.106935 72.133346 -1.075347 -6.691460 18.511103 -0.913001 -6.088064 17.040301 1.013409 3.850866 42.668147 2.143751 2.738466 16.037016 0.792788 0.227641 -2.321400 -1.250871 17.906059 -10.687457 -8.045894 25.285785 9.363471 -0.182507 11.857815 5.446173 0.000000 0.000000 0.000000 -9.951577 -56.486724 -72.922408 31.763658 -42.357755 12.581381 -21.874108 13.955364 -33.949948 0.000000 0.000000 0.000000 -7.125000 0.000000 0.000000 -56.717057 55.020091 18.203358 0.000000 0.000000 0.000000 -24.035701 -48.120260 47.736180 -47.343641 -51.866244 -24.068425 -2.503695 12.578409 -20.154311 0.000000 0.000000 0.000000 7.125000 0.000000 0.000000 16.548503 10.435169 13.885051
16.827942 9.911766 -6.632901 86.717630 -86.145626 -109.161593 0.000000 0.000000 0.000000 -1.621232 -11.377422 -65.672818 13.837152 19.063929 71.706522 1.067831 8.814277 18.559637 3.821437 11.918620 35.445135 0.000000 0.000000 0.000000 1.297591 7.168852 -67.349970 -13.938344 -19.095221 72.016144 -1.070287 -6.692216 18.467273 -0.841107 -5.849490 16.348436 1.940198 3.553308 42.919267 2.153379 2.708199 16.075817 0.342461 0.245210 -2.295362 -0.897538 17.583158 -10.836914 -8.388452 24.954559 10.302476 -0.270264 11.610100 5.847442 0.000000 0.000000 0.000000 -9.427578 -56.444222 -72.672983 32.276952 -42.766859 12.928479 -24.243849 12.869298 -33.623443 0.000000 0.000000 0.000000 -7.125000 0.000000 0.000000 -58.246164 54.324406 17.873625 0.000000 0.000000 0.000000 -23.761315 -48.295805 47.820695 -47.285820 -51.840331 -24.022971 -2.248711 12.887836 -19.825584 0.000000 0.000000 0.000000 7.125000 0.000000 0.000000 16.722205 10.764135 13.927152
16.811802 9.884681 -6.631888 90.445051 -86.235248 -113.003122 0.000000 0.000000 0.000000 -1.633708 -10.621745 -65.955509 13.947219 19.097908 72.043192 1.131176 8.162604 19.035492 3.567620 11.561255 34.197439 0.000000 0.000000 0.000000 1.493488 7.234182 -67.487391 -14.005153 -19.115562 72.220211 -1.077155 -6.758482 18.528041 -0.876293 -5.966098 16.686718 1.669701 3.471604 42.895221 2.322989 2.495386 16.084206 0.736871 0.107694 -2.302558 -1.682272 17.350719 -10.640588 -8.180222 24.786832 11.103618 -0.128333 11.467704 5.947259 0.000000 0.000000 0.000000 -8.706387 -56.230635 -70.701086 32.249285 -42.744993 12.909676 -24.378296 13.806786 -32.518528 0.000000 0.000000 0.000000 -7.125000 0.000000 0.000000 -57.192424 53.586023 16.154493 0.000000 0.000000 0.000000 -23.514272 -48.597847 49.086433 -47.376348 -51.880965 -24.094176 -1.661316 12.614942 -19.873406 0.000000 0.000000 0.000000 7.125000 0.000000 0.000000 17.086320 10.749802 14.265769
16.827457 9.885530 -6.642432 88.290586 -85.892338 -110.922518 0.000000 0.000000 0.000000 -1.931668 -10.873363 -65.774916 13.917294 19.088741 71.951755 1.146389 8.233860 19.166159 3.585505 11.585176 34.282574 0.000000 0.000000 0.000000 1.025769 7.357576 -67.383381 -13.998037 -19.113426 72.198538 -1.067070 -6.839377 18.442585 -0.887935 -6.003049 16.794133 0.921884 3.531167 42.784121 2.355403 2.265536 16.142148 1.235488 -0.048600 -2.243693 -2.973774 17.047956 -11.555501 -6.331295 24.545080 13.291277 0.671467 11.265440 6.392273 0.000000 0.000000 0.000000 -8.149194 -56.308047 -69.452052 32.261983 -42.755034 12.918369 -24.393740 14.092606 -32.540681 0.000000 0.000000 0.000000 -7.125000 0.000000 0.000000 -57.227106 53.597398 16.189240 0.000000 0.000000 0.000000 -22.898152 -49.074750 49.971329 -47.291965 -51.843148 -24.027835 -1.057124 13.004351 -20.209865 0.000000 0.000000 0.000000 7.125000 0.000000 0.000000 17.444482 10.459308 14.704777
16.830516 9.879485 -6.649236 94.403805 -87.039863 -116.901524 0.000000 0.000000 0.000000 -0.551163 -10.759747 -65.832143 13.886782 19.079298 71.858435 1.137321 7.705283 19.063753 3.787221 11.871252 35.278690 0.000000 0.000000 0.000000 2.192320 7.744705 -67.253269 -13.982837 -19.108815 72.152005 -1.004259 -7.685673 17.922646 -1.205122 -6.958241 19.594264 2.067232 3.097525 42.478432 2.366484 2.149657 16.297359 0.709171 -0.054763 -1.931979 -3.329347 16.384551 -11.844691 -6.150446 23.758395 14.041447 0.750968 10.813322 6.604975 0.000000 0.000000 0.000000 -7.641542 -56.614196 -68.797424 32.279727 -42.769040 12.930371 -24.418921 14.412374 -32.328867 0.000000 0.000000 0.000000 -7.125000 0.000000 0.000000 -57.029778 53.454235 15.864166 0.000000 0.000000 0.000000 -22.261102 -49.605752 50.436058 -47.200617 -51.802162 -23.955984 -1.320328 12.506407 -20.494299 0.000000 0.000000 0.000000 7.125000 0.000000 0.000000 17.267787 10.174369 14.645151
